<svg width="45" height="45" viewBox="0 0 45 45" fill="none" xmlns="http://www.w3.org/2000/svg">
<g opacity="0.25">
<path fill-rule="evenodd" clip-rule="evenodd" d="M22.5 3.46154C11.9853 3.46154 3.46154 11.9853 3.46154 22.5C3.46154 33.0147 11.9853 41.5385 22.5 41.5385C33.0147 41.5385 41.5385 33.0147 41.5385 22.5C41.5385 11.9853 33.0147 3.46154 22.5 3.46154ZM0 22.5C0 10.0736 10.0736 0 22.5 0C34.9264 0 45 10.0736 45 22.5C45 34.9264 34.9264 45 22.5 45C10.0736 45 0 34.9264 0 22.5Z" fill="white"/>
<path fill-rule="evenodd" clip-rule="evenodd" d="M22.5 8.65384C23.1751 8.65384 23.7885 9.04636 24.0714 9.65932L34.456 32.1593C34.561 32.3867 34.6154 32.6342 34.6154 32.8846V40.5C34.6154 41.4559 33.8405 42.2308 32.8846 42.2308C31.9287 42.2308 31.1538 41.4559 31.1538 40.5V33.2647L22.5 14.5147L13.8461 33.2647V40.5C13.8461 41.4559 13.0712 42.2308 12.1154 42.2308C11.1595 42.2308 10.3846 41.4559 10.3846 40.5V32.8846C10.3846 32.6342 10.4389 32.3867 10.5439 32.1593L20.9285 9.65932C21.2114 9.04636 21.8249 8.65384 22.5 8.65384Z" fill="white"/>
<path fill-rule="evenodd" clip-rule="evenodd" d="M27.6923 32.8846C26.7742 32.8846 25.8938 33.2493 25.2446 33.8985C24.5955 34.5476 24.2308 35.4281 24.2308 36.3461C24.2308 37.302 23.4559 38.0769 22.5 38.0769C21.5441 38.0769 20.7692 37.302 20.7692 36.3461C20.7692 34.51 21.4986 32.7491 22.7969 31.4508C24.0953 30.1525 25.8562 29.4231 27.6923 29.4231C29.5284 29.4231 31.2893 30.1525 32.5877 31.4508C33.886 32.7491 34.6154 34.51 34.6154 36.3461C34.6154 37.302 33.8405 38.0769 32.8846 38.0769C31.9287 38.0769 31.1538 37.302 31.1538 36.3461C31.1538 35.4281 30.7891 34.5476 30.14 33.8985C29.4908 33.2493 28.6104 32.8846 27.6923 32.8846Z" fill="white"/>
<path fill-rule="evenodd" clip-rule="evenodd" d="M12.4123 31.4508C13.7106 30.1525 15.4715 29.4231 17.3077 29.4231C19.1438 29.4231 20.9047 30.1525 22.203 31.4508C23.5013 32.7491 24.2307 34.51 24.2307 36.3461V43.2692C24.2307 44.2251 23.4558 45 22.5 45C21.5441 45 20.7692 44.2251 20.7692 43.2692V36.3461C20.7692 35.4281 20.4045 34.5476 19.7553 33.8985C19.1062 33.2493 18.2257 32.8846 17.3077 32.8846C16.3896 32.8846 15.5091 33.2493 14.86 33.8985C14.2108 34.5476 13.8461 35.4281 13.8461 36.3461C13.8461 37.302 13.0712 38.0769 12.1154 38.0769C11.1595 38.0769 10.3846 37.302 10.3846 36.3461C10.3846 34.51 11.114 32.7491 12.4123 31.4508Z" fill="white"/>
<path fill-rule="evenodd" clip-rule="evenodd" d="M15.1875 22.5C15.1875 21.5441 15.9624 20.7692 16.9183 20.7692H28.0817C29.0376 20.7692 29.8125 21.5441 29.8125 22.5C29.8125 23.4559 29.0376 24.2308 28.0817 24.2308H16.9183C15.9624 24.2308 15.1875 23.4559 15.1875 22.5Z" fill="white"/>
</g>
</svg>
