<svg width="144" height="143" viewBox="0 0 144 143" fill="none" xmlns="http://www.w3.org/2000/svg">
<path fill-rule="evenodd" clip-rule="evenodd" d="M72 11C38.5868 11 11.5 38.0868 11.5 71.5C11.5 104.913 38.5868 132 72 132C105.413 132 132.5 104.913 132.5 71.5C132.5 38.0868 105.413 11 72 11ZM0.5 71.5C0.5 32.0116 32.5116 0 72 0C111.488 0 143.5 32.0116 143.5 71.5C143.5 110.988 111.488 143 72 143C32.5116 143 0.5 110.988 0.5 71.5Z" fill="white"/>
<path fill-rule="evenodd" clip-rule="evenodd" d="M72 27.5C74.1453 27.5 76.0948 28.7474 76.9938 30.6952L109.994 102.195C110.327 102.918 110.5 103.704 110.5 104.5V128.7C110.5 131.738 108.038 134.2 105 134.2C101.962 134.2 99.5 131.738 99.5 128.7V105.708L72 46.1247L44.5 105.708V128.7C44.5 131.738 42.0376 134.2 39 134.2C35.9624 134.2 33.5 131.738 33.5 128.7V104.5C33.5 103.704 33.6727 102.918 34.0062 102.195L67.0062 30.6952C67.9052 28.7474 69.8547 27.5 72 27.5Z" fill="white"/>
<path fill-rule="evenodd" clip-rule="evenodd" d="M88.5 104.5C85.5826 104.5 82.7847 105.659 80.7218 107.722C78.6589 109.785 77.5 112.583 77.5 115.5C77.5 118.538 75.0376 121 72 121C68.9624 121 66.5 118.538 66.5 115.5C66.5 109.665 68.8178 104.069 72.9436 99.9436C77.0695 95.8178 82.6652 93.5 88.5 93.5C94.3348 93.5 99.9305 95.8178 104.056 99.9436C108.182 104.069 110.5 109.665 110.5 115.5C110.5 118.538 108.038 121 105 121C101.962 121 99.5 118.538 99.5 115.5C99.5 112.583 98.3411 109.785 96.2782 107.722C94.2153 105.659 91.4174 104.5 88.5 104.5Z" fill="white"/>
<path fill-rule="evenodd" clip-rule="evenodd" d="M39.9436 99.9436C44.0695 95.8178 49.6652 93.5 55.5 93.5C61.3348 93.5 66.9305 95.8178 71.0564 99.9436C75.1822 104.069 77.5 109.665 77.5 115.5V137.5C77.5 140.538 75.0376 143 72 143C68.9624 143 66.5 140.538 66.5 137.5V115.5C66.5 112.583 65.3411 109.785 63.2782 107.722C61.2153 105.659 58.4174 104.5 55.5 104.5C52.5826 104.5 49.7847 105.659 47.7218 107.722C45.6589 109.785 44.5 112.583 44.5 115.5C44.5 118.538 42.0376 121 39 121C35.9624 121 33.5 118.538 33.5 115.5C33.5 109.665 35.8178 104.069 39.9436 99.9436Z" fill="white"/>
<path fill-rule="evenodd" clip-rule="evenodd" d="M48.7625 71.5C48.7625 68.4624 51.2249 66 54.2625 66H89.7375C92.7751 66 95.2375 68.4624 95.2375 71.5C95.2375 74.5376 92.7751 77 89.7375 77H54.2625C51.2249 77 48.7625 74.5376 48.7625 71.5Z" fill="white"/>
</svg>
